<?xml version="1.0" encoding="UTF-8" standalone="no"?>
<!DOCTYPE svg PUBLIC "-//W3C//DTD SVG 1.1//EN" "http://www.w3.org/Graphics/SVG/1.1/DTD/svg11.dtd">
<!-- Created with Vectornator (http://vectornator.io/) -->
<svg height="100%" stroke-miterlimit="10" style="fill-rule:nonzero;clip-rule:evenodd;stroke-linecap:round;stroke-linejoin:round;" version="1.1" viewBox="0 0 400 400" width="100%" xml:space="preserve" xmlns="http://www.w3.org/2000/svg" xmlns:vectornator="http://vectornator.io" xmlns:xlink="http://www.w3.org/1999/xlink">
<defs/>
<clipPath id="ArtboardFrame">
<rect height="400" width="400" x="0" y="0"/>
</clipPath>
<g clip-path="url(#ArtboardFrame)" id="svgg" vectornator:layerName="svgg">
<path d="M126.333 64.369C96.874 67.695 82.5 86.988 81.431 124.638L81.229 131.775L92.698 131.556C99.006 131.435 107.317 131.336 111.167 131.335L118.167 131.333L118.191 124.75C118.374 74.901 173.569 70.184 233.46 114.899C238.106 118.369 237.773 117.79 231.931 112.248C195.834 78.004 157.901 60.805 126.333 64.369M296.495 152.73C257.194 192.462 257.745 191.866 254.903 197.729C253.543 200.536 252.81 201.454 253.156 199.917C253.25 199.504 255.355 187.092 257.835 172.333C260.316 157.575 262.423 145.151 262.519 144.724L262.693 143.947L241.596 144.183C229.993 144.313 220.459 144.453 220.41 144.495C220.36 144.536 219.652 148.304 218.836 152.868C215.878 169.422 204.558 232.972 201.15 252.167C199.229 262.983 197.582 272.171 197.489 272.583L197.321 273.333L218.3 273.333L239.28 273.333L239.471 272.417C239.577 271.912 242.065 258.375 245.002 242.333C247.938 226.292 250.384 212.942 250.437 212.667C250.49 212.392 250.721 213.789 250.951 215.773C251.641 221.734 253.614 227.491 256.201 231.092C256.865 232.017 259.14 235.637 261.255 239.137C267.31 249.153 278.082 266.633 280.437 270.261L282.581 273.565L308.153 273.808C322.218 273.942 333.772 274.003 333.828 273.943C333.884 273.882 332.77 271.808 331.353 269.333C314.99 240.769 300.316 214.283 299.977 212.706C299.074 208.494 299.595 207.624 309.921 196.106C314.64 190.844 321.875 182.771 326 178.168C330.125 173.564 338.653 164.058 344.95 157.043C351.248 150.028 356.348 144.243 356.283 144.188C356.219 144.132 344.767 143.983 330.833 143.857L305.5 143.627L296.495 152.73M93.762 144.578L76.691 144.673L76.357 145.92C75.508 149.099 69.352 176.13 69.455 176.232C69.518 176.296 89.654 176.512 114.202 176.712C164.741 177.123 160.624 176.861 163.979 179.878C169.579 184.912 165.481 195.691 156.838 198.665C154.962 199.311 153.98 199.335 128.031 199.381C113.256 199.408 92.709 199.52 82.372 199.631L63.578 199.833L54.973 236C50.24 255.892 46.267 272.604 46.145 273.138L45.923 274.109L65.525 273.88C76.307 273.754 85.201 273.577 85.29 273.488C85.379 273.399 87.528 264.449 90.066 253.601C92.603 242.752 94.714 233.85 94.756 233.817C94.799 233.785 100.908 233.66 108.333 233.54L121.833 233.321L123.568 236.744C126.803 243.127 134.872 254.547 144.944 267C163.598 290.063 181.65 305.397 201.803 315.301C232.246 330.261 261.692 327.141 276.716 307.364C278.635 304.837 278.63 304.822 276.12 305.457C243.217 313.786 199.584 286.445 165.213 235.961L162.349 231.755L166.193 230.163C187.484 221.347 199.639 204.336 200.848 181.667C201.903 161.892 194.24 150.023 177.438 145.407L174.167 144.509L142.5 144.496C125.083 144.489 103.151 144.525 93.762 144.578" fill="#040404" fill-rule="evenodd" opacity="1" stroke="none" vectornator:layerName="path"/>
<path d="M183.833 0.501C65.761 10.429-17.762 118.985 3.026 235.5C17.654 317.486 82.514 382.346 164.5 396.974C177.519 399.296 184.185 399.833 200 399.833C297.356 399.833 379.948 330.928 396.974 235.5C399.296 222.481 399.833 215.815 399.833 200C399.833 184.185 399.296 177.519 396.974 164.5C378.96 63.536 285.886-8.079 183.833 0.501M183.09 36.64C203.227 39.761 223.653 48.67 245.796 63.987C260.565 74.203 277.41 89.844 292.301 107.167C301.041 117.333 311.239 130.561 310.731 131.069C310.571 131.229 300.321 131.453 287.953 131.567L265.466 131.774L264.301 130.303C246.714 108.096 232.446 93.69 214.667 80.187C184.874 57.559 153.943 47.976 128.5 53.49C124.42 54.375 118.846 56.05 115.421 57.42C108.064 60.365 122.154 48.908 131.833 44.075C146.788 36.607 165.433 33.903 183.09 36.64M144.147 64.504C172.199 67.785 202.348 84.183 231.931 112.248C237.773 117.79 238.106 118.369 233.46 114.899C211.346 98.389 186.786 86.874 169.009 84.682C137.607 80.809 118.296 96.034 118.191 124.75L118.167 131.333L111.167 131.335C107.317 131.336 99.006 131.435 92.698 131.556L81.229 131.775L81.431 124.638C82.688 80.329 104.081 59.817 144.147 64.504M356.283 144.188C356.348 144.243 351.248 150.028 344.95 157.043C338.653 164.058 330.125 173.564 326 178.168C321.875 182.771 314.64 190.844 309.921 196.106C299.595 207.624 299.074 208.494 299.977 212.706C300.316 214.283 314.99 240.769 331.353 269.333C332.77 271.808 333.884 273.882 333.828 273.943C333.772 274.003 322.218 273.942 308.153 273.808L282.581 273.565L280.437 270.261C278.082 266.633 267.31 249.153 261.255 239.137C259.14 235.637 256.865 232.017 256.201 231.092C253.614 227.491 251.641 221.734 250.951 215.773C250.721 213.789 250.49 212.392 250.437 212.667C250.384 212.942 247.938 226.292 245.002 242.333C242.065 258.375 239.577 271.912 239.471 272.417L239.28 273.333L218.3 273.333L197.321 273.333L197.489 272.583C197.582 272.171 199.229 262.983 201.15 252.167C214.62 176.31 220.296 144.586 220.416 144.488C220.462 144.451 229.993 144.313 241.596 144.183L262.693 143.947L262.519 144.724C262.423 145.151 260.316 157.575 257.835 172.333C255.355 187.092 253.25 199.504 253.156 199.917C252.857 201.244 253.48 200.713 254.135 199.082C255.553 195.553 260.987 188.281 265.029 184.504C266.008 183.589 275.504 174.015 286.132 163.228L305.455 143.615L330.811 143.851C344.757 143.981 356.219 144.132 356.283 144.188M177.438 145.407C194.24 150.023 201.903 161.892 200.848 181.667C199.639 204.336 187.484 221.347 166.193 230.163L162.349 231.755L165.213 235.961C199.584 286.445 243.217 313.786 276.12 305.457C278.63 304.822 278.635 304.837 276.716 307.364C263.328 324.987 237.214 329.633 210.446 319.154C187.475 310.161 166.069 293.118 144.944 267C134.872 254.547 126.803 243.127 123.568 236.744L121.833 233.321L108.333 233.54C100.908 233.66 94.799 233.785 94.756 233.817C94.714 233.85 92.603 242.752 90.066 253.601C87.528 264.449 85.379 273.399 85.29 273.488C85.06 273.718 46 274.148 46 273.921C46 273.818 46.536 271.506 47.192 268.783C47.847 266.061 48.657 262.633 48.992 261.167C49.606 258.475 58.234 222.178 60.68 212C61.407 208.975 62.356 205 62.789 203.167L63.577 199.833L82.372 199.631C92.709 199.52 113.276 199.408 128.076 199.381L154.985 199.333L157.182 198.506C165.543 195.359 169.403 185.227 164.184 180.127C160.808 176.828 165.177 177.127 114.202 176.712C89.654 176.512 69.518 176.296 69.455 176.232C69.352 176.13 75.508 149.099 76.357 145.92L76.691 144.673L93.762 144.578C103.151 144.525 125.083 144.489 142.5 144.496L174.167 144.509L177.438 145.407M333.315 287.489C333.621 287.678 332.161 292.563 331.623 293.15C331.464 293.324 331.333 293.669 331.333 293.916C331.333 294.163 331.033 294.986 330.667 295.745C330.3 296.504 330 297.256 330 297.415C330 297.894 324.394 309.151 323.498 310.471C323.041 311.145 322.667 311.811 322.667 311.952C322.667 312.093 322.404 312.498 322.083 312.854C321.762 313.209 321.287 313.912 321.027 314.417C320.767 314.921 320.429 315.333 320.277 315.333C320.125 315.333 320 315.521 320 315.75C319.999 315.979 319.624 316.602 319.166 317.135C318.708 317.668 318.333 318.199 318.333 318.316C318.333 318.432 317.808 319.084 317.167 319.765C316.525 320.445 316 321.137 316 321.303C316 321.706 305.302 332.413 305.1 332.211C305.014 332.125 304.319 332.642 303.557 333.361C302.794 334.079 301.982 334.667 301.752 334.667C301.522 334.667 301.333 334.791 301.333 334.944C301.333 335.096 300.921 335.434 300.417 335.694C299.912 335.954 299.209 336.429 298.854 336.75C298.498 337.071 298.011 337.333 297.77 337.333C297.53 337.333 297.333 337.453 297.333 337.599C297.333 337.745 296.246 338.428 294.917 339.117C293.587 339.806 292.275 340.505 292 340.669C281.066 347.217 256.634 350.873 243.667 347.904C234.064 345.704 228.467 344.147 222 341.874C213.075 338.737 210.792 337.801 203.167 334.146C183.583 324.762 164.351 309.656 151.622 293.658C146.016 286.613 145.736 285.287 150.927 290.375C206.546 344.88 269.01 345.091 295.552 290.864L297.495 286.894L315.254 287.098C325.021 287.21 333.149 287.386 333.315 287.489" fill="#f3c32c" fill-opacity="0" fill-rule="evenodd" opacity="1" stroke="none" vectornator:layerName="path"/>
<path d="M158 36.171C141.052 38.438 124.609 45.982 114.853 55.966C112.896 57.969 113.052 58.369 115.421 57.42C118.483 56.195 123.285 54.714 127.167 53.798C161.089 45.797 202.143 63.852 241.554 104.107C250.219 112.957 254.13 117.461 264.301 130.303L265.466 131.774L287.953 131.567C300.321 131.453 310.571 131.229 310.731 131.069C311.239 130.561 301.041 117.333 292.301 107.167C277.41 89.844 260.565 74.203 245.796 63.987C214.565 42.383 183.987 32.695 158 36.171M295.552 290.864C269.009 345.092 206.548 344.881 150.927 290.375C145.736 285.287 146.016 286.613 151.622 293.658C164.351 309.656 183.583 324.762 203.167 334.146C210.792 337.801 213.075 338.737 222 341.874C228.467 344.147 234.064 345.704 243.667 347.904C256.634 350.873 281.066 347.217 292 340.669C292.275 340.505 293.587 339.806 294.917 339.117C296.246 338.428 297.333 337.745 297.333 337.599C297.333 337.453 297.53 337.333 297.77 337.333C298.011 337.333 298.498 337.071 298.854 336.75C299.209 336.429 299.912 335.954 300.417 335.694C300.921 335.434 301.333 335.096 301.333 334.944C301.333 334.791 301.522 334.667 301.752 334.667C301.982 334.667 302.794 334.079 303.557 333.361C304.319 332.642 305.014 332.125 305.1 332.211C305.302 332.413 316 321.706 316 321.303C316 321.137 316.525 320.445 317.167 319.765C317.808 319.084 318.333 318.432 318.333 318.316C318.333 318.199 318.708 317.668 319.166 317.135C319.624 316.602 319.999 315.979 320 315.75C320 315.521 320.125 315.333 320.277 315.333C320.429 315.333 320.767 314.921 321.027 314.417C321.287 313.912 321.762 313.209 322.083 312.854C322.404 312.498 322.667 312.093 322.667 311.952C322.667 311.811 323.041 311.145 323.498 310.471C324.394 309.151 330 297.894 330 297.415C330 297.256 330.3 296.504 330.667 295.745C331.033 294.986 331.333 294.163 331.333 293.916C331.333 293.669 331.464 293.324 331.623 293.15C332.161 292.563 333.621 287.678 333.315 287.489C333.149 287.386 325.021 287.21 315.254 287.098L297.495 286.894L295.552 290.864" fill="#fffff3" fill-rule="evenodd" opacity="1" stroke="none" vectornator:layerName="path"/>
</g>
</svg>
